<svg width="1300" height="1300" viewBox="0 0 1300 1300" fill="none" xmlns="http://www.w3.org/2000/svg">
<g clip-path="url(#clip0_24_3)">
<path d="M1266.9 617.425L1193.3 598.045C1184.43 595.679 1175.16 595.16 1166.08 596.521C1156.72 523.481 1131.45 453.384 1092.04 391.178L1154.97 284.477C1169.56 259.871 1163.69 245.499 1156.28 237.878C1148.88 230.256 1134.51 224.159 1109.68 237.878L1012.13 293.405C928.223 213.004 819.676 163.219 704.003 152.082L671.993 32.5343C664.154 4.8794 650.218 -1 639.112 -1C628.442 -1 614.288 4.8794 606.667 32.5343L573.568 154.913C464.137 170.65 362.593 220.926 283.735 298.414L178.342 238.313C153.518 224.159 139.363 230.256 131.742 238.313C124.121 246.37 118.459 260.089 133.049 284.913L202.077 401.194C165.984 461.019 142.977 527.812 134.573 597.174C125.476 595.884 116.211 596.477 107.353 598.916L33.7521 618.296C5.66164 624.611 0 638.765 0 649.435C0 660.106 5.8794 674.26 33.5343 681.663L105.829 700.39C114.139 702.632 122.7 703.803 131.307 703.874H132.831C139.125 775.801 160.81 845.535 196.415 908.347L133.049 1014.61C118.459 1039.44 124.338 1053.59 131.742 1061.21C134.281 1063.83 137.331 1065.89 140.703 1067.28C144.075 1068.66 147.695 1069.34 151.34 1069.27C160.923 1068.82 170.226 1065.89 178.342 1060.78L270.017 1008.51C351.787 1095.58 461.219 1151.61 579.665 1167.04L606.667 1266.34C614.07 1293.99 628.442 1299.65 639.112 1299.65C649.782 1299.65 663.936 1293.77 671.558 1266.34L697.906 1169.22C822.588 1158.62 939.19 1103.15 1026.06 1013.09L1109.46 1060.56C1117.58 1065.67 1126.88 1068.6 1136.47 1069.05C1140.11 1069.12 1143.73 1068.45 1147.1 1067.06C1150.47 1065.67 1153.52 1063.61 1156.06 1060.99C1163.47 1053.37 1169.35 1039.22 1154.76 1014.39L1098.58 918.799C1137.86 853.252 1161.62 779.585 1168.04 703.439H1169.56C1178.01 703.473 1186.42 702.449 1194.61 700.39L1266.47 681.446C1294.34 674.26 1300 659.67 1300 649.435C1300 639.201 1294.77 624.611 1266.9 617.425ZM909.129 402.501L928.509 391.395L1097.92 294.93L1047.84 380.072L989.263 479.586C988.569 481.453 987.377 483.093 985.815 484.329C984.254 485.565 982.384 486.349 980.408 486.596C978.432 486.843 976.427 486.543 974.609 485.73C972.792 484.916 971.232 483.62 970.1 481.982L906.734 419.704C905.153 418.698 903.894 417.261 903.106 415.562C902.317 413.863 902.032 411.973 902.284 410.118C902.536 408.262 903.315 406.517 904.528 405.09C905.741 403.662 907.338 402.613 909.129 402.065V402.501ZM582.496 286.437L638.677 79.3518L665.243 177.342L689.631 267.492L694.64 286.219C695.485 287.928 695.837 289.838 695.655 291.735C695.473 293.632 694.765 295.441 693.611 296.958C692.456 298.474 690.901 299.638 689.121 300.319C687.341 300.999 685.406 301.169 683.534 300.809H594.037C592.165 301.169 590.23 300.999 588.45 300.319C586.67 299.638 585.115 298.474 583.96 296.958C582.806 295.441 582.098 293.632 581.916 291.735C581.734 289.838 582.086 287.928 582.931 286.219L582.496 286.437ZM378.459 896.152L262.831 961.479L190.1 1003.94L298.978 819.285C299.813 817.543 301.03 816.012 302.538 814.806C304.046 813.6 305.806 812.749 307.688 812.317C311.212 812.605 314.489 814.243 316.834 816.889L379.983 879.167C381.564 880.173 382.823 881.61 383.611 883.309C384.4 885.008 384.685 886.897 384.433 888.753C384.181 890.609 383.402 892.354 382.189 893.781C380.976 895.209 379.379 896.258 377.588 896.806L378.459 896.152ZM380.637 419.921L317.487 482.199C316.355 483.837 314.796 485.134 312.979 485.947C311.161 486.761 309.155 487.06 307.18 486.813C305.204 486.566 303.334 485.782 301.772 484.547C300.211 483.311 299.019 481.67 298.325 479.804V478.062L189.883 294.93L276.985 344.142L379.548 402.501C381.339 403.048 382.936 404.098 384.149 405.525C385.362 406.952 386.141 408.697 386.393 410.553C386.645 412.409 386.359 414.298 385.571 415.997C384.782 417.696 383.523 419.134 381.943 420.139L380.637 419.921ZM694.858 1012.22L638.677 1219.3L616.901 1141.78L581.843 1012.43C580.997 1010.73 580.646 1008.82 580.828 1006.92C581.009 1005.02 581.717 1003.21 582.872 1001.7C584.026 1000.18 585.581 999.015 587.361 998.335C589.142 997.654 591.076 997.484 592.948 997.844H683.099C684.97 997.484 686.905 997.654 688.686 998.335C690.466 999.015 692.021 1000.18 693.175 1001.7C694.33 1003.21 695.038 1005.02 695.219 1006.92C695.401 1008.82 695.05 1010.73 694.204 1012.43L694.858 1012.22ZM639.112 714.762C626.261 714.462 613.784 710.377 603.243 703.019C592.703 695.661 584.567 685.357 579.856 673.397C575.144 661.437 574.066 648.352 576.756 635.782C579.447 623.212 585.785 611.715 594.979 602.731C604.173 593.747 615.813 587.674 628.442 585.275C641.071 582.875 654.127 584.255 665.975 589.241C677.824 594.227 687.938 602.598 695.051 613.305C702.164 624.013 705.96 636.581 705.963 649.435C705.966 658.144 704.227 666.765 700.849 674.792C697.471 682.819 692.522 690.089 686.294 696.176C680.065 702.262 672.683 707.042 664.58 710.234C656.477 713.426 647.818 714.965 639.112 714.762ZM1033.25 966.923L909.129 896.37C907.338 895.822 905.741 894.773 904.528 893.346C903.315 891.919 902.536 890.174 902.284 888.318C902.032 886.462 902.317 884.573 903.106 882.874C903.894 881.175 905.153 879.737 906.734 878.732L940.921 845.415L970.318 816.672C972.664 814.026 975.94 812.388 979.464 812.099C981.346 812.531 983.107 813.382 984.615 814.588C986.123 815.795 987.339 817.326 988.174 819.067L996.449 833.221L1096.83 1003.94L1033.25 966.923Z" fill="black"/>
</g>
<defs>
<clipPath id="clip0_24_3">
<rect width="1300" height="1300" fill="white"/>
</clipPath>
</defs>
</svg>
